<svg xmlns="http://www.w3.org/2000/svg" viewBox="0 0 100 100">
  <style>
    .truck-primary { fill: #1E3A8A; }
    .truck-secondary { fill: #F59E0B; }
    .truck-wheels { fill: #1F2937; }
    .truck-window { fill: #A5F3FC; }
  </style>
  
  <!-- Truck Body -->
  <rect x="10" y="40" width="50" height="25" rx="3" class="truck-primary" />
  
  <!-- Truck Cabin -->
  <path d="M10,65 L10,40 C10,38.3 11.3,37 13,37 L27,37 C28.7,37 30,38.3 30,40 L30,65 Z" class="truck-primary" />
  
  <!-- Window -->
  <path d="M14,40 L26,40 C26.6,40 27,40.4 27,41 L27,50 C27,50.6 26.6,51 26,51 L14,51 C13.4,51 13,50.6 13,50 L13,41 C13,40.4 13.4,40 14,40 Z" class="truck-window" />
  
  <!-- Cargo Container -->
  <rect x="40" y="30" width="40" height="35" rx="2" class="truck-secondary" />
  
  <!-- Wheels -->
  <circle cx="20" cy="70" r="8" class="truck-wheels" />
  <circle cx="70" cy="70" r="8" class="truck-wheels" />
  
  <!-- Details -->
  <rect x="30" y="45" width="10" height="3" class="truck-secondary" />
  <rect x="45" y="50" width="30" height="2" class="truck-primary" />
  <rect x="45" y="40" width="30" height="2" class="truck-primary" />
</svg>
